# Blender v2.79 (sub 0) OBJ File: ''
# www.blender.org
o Icosphere
v 0.000000 -0.840837 0.000000
v 0.723607 -0.288057 0.525725
v -0.276388 -0.288057 0.850649
v -0.894426 -0.288053 0.000000
v -0.276388 -0.288057 -0.850649
v 0.723607 -0.288057 -0.525725
v 0.276388 0.606382 0.850649
v -0.723607 0.606382 0.525725
v -0.723607 0.606382 -0.525725
v 0.276388 0.606382 -0.850649
v 0.894426 0.606378 0.000000
v 0.000000 1.159163 0.000000
v -0.162456 -0.691492 0.499995
v 0.425323 -0.691492 0.309011
v 0.262869 -0.366575 0.809012
v 0.850648 -0.366573 0.000000
v 0.425323 -0.691492 -0.309011
v -0.525730 -0.691489 0.000000
v -0.688189 -0.366574 0.499997
v -0.162456 -0.691492 -0.499995
v -0.688189 -0.366574 -0.499997
v 0.262869 -0.366575 -0.809012
v 0.951058 0.159163 0.309013
v 0.951058 0.159163 -0.309013
v 0.000000 0.159163 1.000000
v 0.587786 0.159163 0.809017
v -0.951058 0.159163 0.309013
v -0.587786 0.159163 0.809017
v -0.587786 0.159163 -0.809017
v -0.951058 0.159163 -0.309013
v 0.587786 0.159163 -0.809017
v 0.000000 0.159163 -1.000000
v 0.688189 0.684899 0.499997
v -0.262869 0.684900 0.809012
v -0.850648 0.684899 0.000000
v -0.262869 0.684900 -0.809012
v 0.688189 0.684899 -0.499997
v 0.162456 1.009817 0.499995
v 0.525730 1.009814 0.000000
v -0.425323 1.009817 0.309011
v -0.425323 1.009817 -0.309011
v 0.162456 1.009817 -0.499995
v -0.162456 -0.691492 0.499995
v -0.162456 -0.691492 0.499995
v -0.162456 -0.691492 0.499995
v -0.162456 -0.691492 0.499995
v -0.162456 -0.691492 0.499995
v 0.000000 -0.840837 0.000000
v 0.000000 -0.840837 0.000000
v 0.000000 -0.840837 0.000000
v 0.000000 -0.840837 0.000000
v 0.425323 -0.691492 0.309011
v 0.425323 -0.691492 0.309011
v 0.425323 -0.691492 0.309011
v 0.425323 -0.691492 0.309011
v 0.425323 -0.691492 0.309011
v 0.723607 -0.288057 0.525725
v 0.723607 -0.288057 0.525725
v 0.723607 -0.288057 0.525725
v 0.723607 -0.288057 0.525725
v 0.262869 -0.366575 0.809012
v 0.262869 -0.366575 0.809012
v 0.262869 -0.366575 0.809012
v 0.262869 -0.366575 0.809012
v 0.262869 -0.366575 0.809012
v -0.276388 -0.288057 0.850649
v -0.276388 -0.288057 0.850649
v -0.276388 -0.288057 0.850649
v -0.276388 -0.288057 0.850649
v 0.850648 -0.366573 0.000000
v 0.850648 -0.366573 0.000000
v 0.850648 -0.366573 0.000000
v 0.850648 -0.366573 0.000000
v 0.850648 -0.366573 0.000000
v 0.425323 -0.691492 -0.309011
v 0.425323 -0.691492 -0.309011
v 0.425323 -0.691492 -0.309011
v 0.425323 -0.691492 -0.309011
v 0.425323 -0.691492 -0.309011
v 0.723607 -0.288057 -0.525725
v 0.723607 -0.288057 -0.525725
v 0.723607 -0.288057 -0.525725
v 0.723607 -0.288057 -0.525725
v -0.525730 -0.691489 0.000000
v -0.525730 -0.691489 0.000000
v -0.525730 -0.691489 0.000000
v -0.525730 -0.691489 0.000000
v -0.525730 -0.691489 0.000000
v -0.688189 -0.366574 0.499997
v -0.688189 -0.366574 0.499997
v -0.688189 -0.366574 0.499997
v -0.688189 -0.366574 0.499997
v -0.688189 -0.366574 0.499997
v -0.894426 -0.288053 0.000000
v -0.894426 -0.288053 0.000000
v -0.894426 -0.288053 0.000000
v -0.894426 -0.288053 0.000000
v -0.162456 -0.691492 -0.499995
v -0.162456 -0.691492 -0.499995
v -0.162456 -0.691492 -0.499995
v -0.162456 -0.691492 -0.499995
v -0.162456 -0.691492 -0.499995
v -0.688189 -0.366574 -0.499997
v -0.688189 -0.366574 -0.499997
v -0.688189 -0.366574 -0.499997
v -0.688189 -0.366574 -0.499997
v -0.688189 -0.366574 -0.499997
v -0.276388 -0.288057 -0.850649
v -0.276388 -0.288057 -0.850649
v -0.276388 -0.288057 -0.850649
v -0.276388 -0.288057 -0.850649
v 0.262869 -0.366575 -0.809012
v 0.262869 -0.366575 -0.809012
v 0.262869 -0.366575 -0.809012
v 0.262869 -0.366575 -0.809012
v 0.262869 -0.366575 -0.809012
v 0.951058 0.159163 0.309013
v 0.951058 0.159163 0.309013
v 0.951058 0.159163 0.309013
v 0.951058 0.159163 0.309013
v 0.951058 0.159163 0.309013
v 0.951058 0.159163 -0.309013
v 0.951058 0.159163 -0.309013
v 0.951058 0.159163 -0.309013
v 0.951058 0.159163 -0.309013
v 0.951058 0.159163 -0.309013
v 0.894426 0.606378 0.000000
v 0.894426 0.606378 0.000000
v 0.894426 0.606378 0.000000
v 0.894426 0.606378 0.000000
v 0.000000 0.159163 1.000000
v 0.000000 0.159163 1.000000
v 0.000000 0.159163 1.000000
v 0.000000 0.159163 1.000000
v 0.000000 0.159163 1.000000
v 0.587786 0.159163 0.809017
v 0.587786 0.159163 0.809017
v 0.587786 0.159163 0.809017
v 0.587786 0.159163 0.809017
v 0.587786 0.159163 0.809017
v 0.276388 0.606382 0.850649
v 0.276388 0.606382 0.850649
v 0.276388 0.606382 0.850649
v 0.276388 0.606382 0.850649
v -0.951058 0.159163 0.309013
v -0.951058 0.159163 0.309013
v -0.951058 0.159163 0.309013
v -0.951058 0.159163 0.309013
v -0.951058 0.159163 0.309013
v -0.587786 0.159163 0.809017
v -0.587786 0.159163 0.809017
v -0.587786 0.159163 0.809017
v -0.587786 0.159163 0.809017
v -0.587786 0.159163 0.809017
v -0.723607 0.606382 0.525725
v -0.723607 0.606382 0.525725
v -0.723607 0.606382 0.525725
v -0.723607 0.606382 0.525725
v -0.587786 0.159163 -0.809017
v -0.587786 0.159163 -0.809017
v -0.587786 0.159163 -0.809017
v -0.587786 0.159163 -0.809017
v -0.587786 0.159163 -0.809017
v -0.951058 0.159163 -0.309013
v -0.951058 0.159163 -0.309013
v -0.951058 0.159163 -0.309013
v -0.951058 0.159163 -0.309013
v -0.951058 0.159163 -0.309013
v -0.723607 0.606382 -0.525725
v -0.723607 0.606382 -0.525725
v -0.723607 0.606382 -0.525725
v -0.723607 0.606382 -0.525725
v 0.587786 0.159163 -0.809017
v 0.587786 0.159163 -0.809017
v 0.587786 0.159163 -0.809017
v 0.587786 0.159163 -0.809017
v 0.587786 0.159163 -0.809017
v 0.000000 0.159163 -1.000000
v 0.000000 0.159163 -1.000000
v 0.000000 0.159163 -1.000000
v 0.000000 0.159163 -1.000000
v 0.000000 0.159163 -1.000000
v 0.276388 0.606382 -0.850649
v 0.276388 0.606382 -0.850649
v 0.276388 0.606382 -0.850649
v 0.276388 0.606382 -0.850649
v 0.688189 0.684899 0.499997
v 0.688189 0.684899 0.499997
v 0.688189 0.684899 0.499997
v 0.688189 0.684899 0.499997
v 0.688189 0.684899 0.499997
v -0.262869 0.684900 0.809012
v -0.262869 0.684900 0.809012
v -0.262869 0.684900 0.809012
v -0.262869 0.684900 0.809012
v -0.262869 0.684900 0.809012
v -0.850648 0.684899 0.000000
v -0.850648 0.684899 0.000000
v -0.850648 0.684899 0.000000
v -0.850648 0.684899 0.000000
v -0.850648 0.684899 0.000000
v -0.262869 0.684900 -0.809012
v -0.262869 0.684900 -0.809012
v -0.262869 0.684900 -0.809012
v -0.262869 0.684900 -0.809012
v -0.262869 0.684900 -0.809012
v 0.688189 0.684899 -0.499997
v 0.688189 0.684899 -0.499997
v 0.688189 0.684899 -0.499997
v 0.688189 0.684899 -0.499997
v 0.688189 0.684899 -0.499997
v 0.162456 1.009817 0.499995
v 0.162456 1.009817 0.499995
v 0.162456 1.009817 0.499995
v 0.162456 1.009817 0.499995
v 0.162456 1.009817 0.499995
v 0.525730 1.009814 0.000000
v 0.525730 1.009814 0.000000
v 0.525730 1.009814 0.000000
v 0.525730 1.009814 0.000000
v 0.525730 1.009814 0.000000
v 0.000000 1.159163 0.000000
v 0.000000 1.159163 0.000000
v 0.000000 1.159163 0.000000
v 0.000000 1.159163 0.000000
v -0.425323 1.009817 0.309011
v -0.425323 1.009817 0.309011
v -0.425323 1.009817 0.309011
v -0.425323 1.009817 0.309011
v -0.425323 1.009817 0.309011
v -0.425323 1.009817 -0.309011
v -0.425323 1.009817 -0.309011
v -0.425323 1.009817 -0.309011
v -0.425323 1.009817 -0.309011
v -0.425323 1.009817 -0.309011
v 0.162456 1.009817 -0.499995
v 0.162456 1.009817 -0.499995
v 0.162456 1.009817 -0.499995
v 0.162456 1.009817 -0.499995
v 0.162456 1.009817 -0.499995
vn 0.1024 -0.9435 0.3151
vn 0.7002 -0.6617 0.2680
vn -0.2680 -0.9435 0.1947
vn -0.2680 -0.9435 -0.1947
vn 0.1024 -0.9435 -0.3151
vn 0.9050 -0.3304 0.2680
vn 0.0247 -0.3304 0.9435
vn -0.8897 -0.3304 0.3151
vn -0.5746 -0.3304 -0.7488
vn 0.5346 -0.3304 -0.7779
vn 0.8026 -0.1256 0.5831
vn -0.3066 -0.1256 0.9435
vn -0.9921 -0.1256 0.0000
vn -0.3066 -0.1256 -0.9435
vn 0.8026 -0.1256 -0.5831
vn 0.4089 0.6617 0.6284
vn -0.4713 0.6617 0.5831
vn -0.7002 0.6617 -0.2680
vn 0.0385 0.6617 -0.7488
vn 0.7240 0.6617 -0.1947
vn 0.2680 0.9435 -0.1947
vn 0.4911 0.7946 -0.3568
vn 0.4089 0.6617 -0.6284
vn -0.1024 0.9435 -0.3151
vn -0.1876 0.7946 -0.5773
vn -0.4713 0.6617 -0.5831
vn -0.3313 0.9435 0.0000
vn -0.6070 0.7946 0.0000
vn -0.7002 0.6617 0.2680
vn -0.1024 0.9435 0.3151
vn -0.1876 0.7946 0.5773
vn 0.0385 0.6617 0.7488
vn 0.2680 0.9435 0.1947
vn 0.4911 0.7946 0.3568
vn 0.7240 0.6617 0.1947
vn 0.8897 0.3304 -0.3151
vn 0.7946 0.1876 -0.5773
vn 0.5746 0.3304 -0.7488
vn -0.0247 0.3304 -0.9435
vn -0.3035 0.1876 -0.9341
vn -0.5346 0.3304 -0.7779
vn -0.9050 0.3304 -0.2680
vn -0.9822 0.1876 0.0000
vn -0.9050 0.3304 0.2680
vn -0.5346 0.3304 0.7779
vn -0.3035 0.1876 0.9341
vn -0.0247 0.3304 0.9435
vn 0.5746 0.3304 0.7488
vn 0.7946 0.1876 0.5773
vn 0.8897 0.3304 0.3151
vn 0.3066 0.1256 -0.9435
vn 0.3035 -0.1876 -0.9341
vn 0.0247 -0.3304 -0.9435
vn -0.8026 0.1256 -0.5831
vn -0.7946 -0.1876 -0.5773
vn -0.8897 -0.3304 -0.3151
vn -0.8026 0.1256 0.5831
vn -0.7946 -0.1876 0.5773
vn -0.5746 -0.3304 0.7488
vn 0.3066 0.1256 0.9435
vn 0.3035 -0.1876 0.9341
vn 0.5346 -0.3304 0.7779
vn 0.9921 0.1256 0.0000
vn 0.9822 -0.1876 0.0000
vn 0.9050 -0.3304 -0.2680
vn 0.4713 -0.6617 -0.5831
vn 0.1876 -0.7946 -0.5773
vn -0.0385 -0.6617 -0.7488
vn -0.4089 -0.6617 -0.6284
vn -0.4911 -0.7946 -0.3568
vn -0.7240 -0.6617 -0.1947
vn -0.7240 -0.6617 0.1947
vn -0.4911 -0.7946 0.3568
vn -0.4089 -0.6617 0.6284
vn 0.7002 -0.6617 -0.2680
vn 0.6070 -0.7946 0.0000
vn 0.3313 -0.9435 0.0000
vn -0.0385 -0.6617 0.7488
vn 0.1876 -0.7946 0.5773
vn 0.4713 -0.6617 0.5831
s 1
f 48//1 53//1 43//1
f 57//2 52//2 70//2
f 49//3 45//3 84//3
f 50//4 86//4 98//4
f 51//5 100//5 76//5
f 58//6 72//6 117//6
f 66//7 61//7 131//7
f 94//8 89//8 145//8
f 108//9 103//9 159//9
f 81//10 112//10 173//10
f 60//11 119//11 137//11
f 69//12 133//12 151//12
f 97//13 147//13 165//13
f 111//14 161//14 179//14
f 83//15 175//15 123//15
f 142//16 187//16 212//16
f 156//17 192//17 226//17
f 170//18 197//18 231//18
f 184//19 202//19 236//19
f 128//20 207//20 218//20
f 217//21 237//21 222//21
f 39//22 209//22 238//22
f 208//23 186//23 240//23
f 239//24 232//24 225//24
f 42//25 204//25 233//25
f 203//26 172//26 235//26
f 234//27 227//27 224//27
f 41//28 199//28 228//28
f 198//29 158//29 230//29
f 229//30 213//30 223//30
f 40//31 194//31 214//31
f 193//32 144//32 216//32
f 215//33 219//33 12//33
f 38//34 189//34 220//34
f 188//35 130//35 221//35
f 122//36 210//36 127//36
f 24//37 176//37 211//37
f 174//38 185//38 37//38
f 178//39 205//39 183//39
f 32//40 162//40 206//40
f 160//41 171//41 36//41
f 164//42 200//42 169//42
f 30//43 148//43 201//43
f 146//44 157//44 35//44
f 150//45 195//45 155//45
f 28//46 134//46 196//46
f 132//47 143//47 34//47
f 136//48 190//48 141//48
f 26//49 120//49 191//49
f 118//50 129//50 33//50
f 177//51 180//51 10//51
f 31//52 114//52 181//52
f 113//53 110//53 182//53
f 163//54 166//54 9//54
f 29//55 105//55 167//55
f 104//56 96//56 168//56
f 149//57 152//57 8//57
f 27//58 91//58 153//58
f 90//59 68//59 154//59
f 135//60 138//60 7//60
f 25//61 63//61 139//61
f 62//62 59//62 140//62
f 121//63 124//63 11//63
f 23//64 73//64 125//64
f 71//65 82//65 126//65
f 75//66 115//66 80//66
f 17//67 101//67 116//67
f 99//68 109//68 22//68
f 102//69 106//69 5//69
f 20//70 87//70 107//70
f 85//71 95//71 21//71
f 88//72 92//72 4//72
f 18//73 46//73 93//73
f 44//74 67//74 19//74
f 74//75 77//75 6//75
f 16//76 54//76 78//76
f 56//77 1//77 79//77
f 47//78 64//78 3//78
f 13//79 55//79 65//79
f 14//80 2//80 15//80
