# Blender v2.79 (sub 0) OBJ File: ''
# www.blender.org
o Icosphere
v 0.000000 -1.000000 0.000000
v 0.723607 -0.447220 0.525725
v -0.276388 -0.447220 0.850649
v -0.894426 -0.447216 0.000000
v -0.276388 -0.447220 -0.850649
v 0.723607 -0.447220 -0.525725
v 0.276388 0.447220 0.850649
v -0.723607 0.447220 0.525725
v -0.723607 0.447220 -0.525725
v 0.276388 0.447220 -0.850649
v 0.894426 0.447216 0.000000
v 0.000000 1.000000 0.000000
v -0.162456 -0.850654 0.499995
v 0.425323 -0.850654 0.309011
v 0.262869 -0.525738 0.809012
v 0.850648 -0.525736 0.000000
v 0.425323 -0.850654 -0.309011
v -0.525730 -0.850652 0.000000
v -0.688189 -0.525736 0.499997
v -0.162456 -0.850654 -0.499995
v -0.688189 -0.525736 -0.499997
v 0.262869 -0.525738 -0.809012
v 0.951058 0.000000 0.309013
v 0.951058 0.000000 -0.309013
v 0.000000 0.000000 1.000000
v 0.587786 0.000000 0.809017
v -0.951058 0.000000 0.309013
v -0.587786 0.000000 0.809017
v -0.587786 0.000000 -0.809017
v -0.951058 0.000000 -0.309013
v 0.587786 0.000000 -0.809017
v 0.000000 0.000000 -1.000000
v 0.688189 0.525736 0.499997
v -0.262869 0.525738 0.809012
v -0.850648 0.525736 0.000000
v -0.262869 0.525738 -0.809012
v 0.688189 0.525736 -0.499997
v 0.162456 0.850654 0.499995
v 0.525730 0.850652 0.000000
v -0.425323 0.850654 0.309011
v -0.425323 0.850654 -0.309011
v 0.162456 0.850654 -0.499995
v -0.162456 -0.850654 0.499995
v -0.162456 -0.850654 0.499995
v -0.162456 -0.850654 0.499995
v -0.162456 -0.850654 0.499995
v -0.162456 -0.850654 0.499995
v 0.000000 -1.000000 0.000000
v 0.000000 -1.000000 0.000000
v 0.000000 -1.000000 0.000000
v 0.000000 -1.000000 0.000000
v 0.425323 -0.850654 0.309011
v 0.425323 -0.850654 0.309011
v 0.425323 -0.850654 0.309011
v 0.425323 -0.850654 0.309011
v 0.425323 -0.850654 0.309011
v 0.723607 -0.447220 0.525725
v 0.723607 -0.447220 0.525725
v 0.723607 -0.447220 0.525725
v 0.723607 -0.447220 0.525725
v 0.262869 -0.525738 0.809012
v 0.262869 -0.525738 0.809012
v 0.262869 -0.525738 0.809012
v 0.262869 -0.525738 0.809012
v 0.262869 -0.525738 0.809012
v -0.276388 -0.447220 0.850649
v -0.276388 -0.447220 0.850649
v -0.276388 -0.447220 0.850649
v -0.276388 -0.447220 0.850649
v 0.850648 -0.525736 0.000000
v 0.850648 -0.525736 0.000000
v 0.850648 -0.525736 0.000000
v 0.850648 -0.525736 0.000000
v 0.850648 -0.525736 0.000000
v 0.425323 -0.850654 -0.309011
v 0.425323 -0.850654 -0.309011
v 0.425323 -0.850654 -0.309011
v 0.425323 -0.850654 -0.309011
v 0.425323 -0.850654 -0.309011
v 0.723607 -0.447220 -0.525725
v 0.723607 -0.447220 -0.525725
v 0.723607 -0.447220 -0.525725
v 0.723607 -0.447220 -0.525725
v -0.525730 -0.850652 0.000000
v -0.525730 -0.850652 0.000000
v -0.525730 -0.850652 0.000000
v -0.525730 -0.850652 0.000000
v -0.525730 -0.850652 0.000000
v -0.688189 -0.525736 0.499997
v -0.688189 -0.525736 0.499997
v -0.688189 -0.525736 0.499997
v -0.688189 -0.525736 0.499997
v -0.688189 -0.525736 0.499997
v -0.894426 -0.447216 0.000000
v -0.894426 -0.447216 0.000000
v -0.894426 -0.447216 0.000000
v -0.894426 -0.447216 0.000000
v -0.162456 -0.850654 -0.499995
v -0.162456 -0.850654 -0.499995
v -0.162456 -0.850654 -0.499995
v -0.162456 -0.850654 -0.499995
v -0.162456 -0.850654 -0.499995
v -0.688189 -0.525736 -0.499997
v -0.688189 -0.525736 -0.499997
v -0.688189 -0.525736 -0.499997
v -0.688189 -0.525736 -0.499997
v -0.688189 -0.525736 -0.499997
v -0.276388 -0.447220 -0.850649
v -0.276388 -0.447220 -0.850649
v -0.276388 -0.447220 -0.850649
v -0.276388 -0.447220 -0.850649
v 0.262869 -0.525738 -0.809012
v 0.262869 -0.525738 -0.809012
v 0.262869 -0.525738 -0.809012
v 0.262869 -0.525738 -0.809012
v 0.262869 -0.525738 -0.809012
v 0.951058 0.000000 0.309013
v 0.951058 0.000000 0.309013
v 0.951058 0.000000 0.309013
v 0.951058 0.000000 0.309013
v 0.951058 0.000000 0.309013
v 0.951058 0.000000 -0.309013
v 0.951058 0.000000 -0.309013
v 0.951058 0.000000 -0.309013
v 0.951058 0.000000 -0.309013
v 0.951058 0.000000 -0.309013
v 0.894426 0.447216 0.000000
v 0.894426 0.447216 0.000000
v 0.894426 0.447216 0.000000
v 0.894426 0.447216 0.000000
v 0.000000 0.000000 1.000000
v 0.000000 0.000000 1.000000
v 0.000000 0.000000 1.000000
v 0.000000 0.000000 1.000000
v 0.000000 0.000000 1.000000
v 0.587786 0.000000 0.809017
v 0.587786 0.000000 0.809017
v 0.587786 0.000000 0.809017
v 0.587786 0.000000 0.809017
v 0.587786 0.000000 0.809017
v 0.276388 0.447220 0.850649
v 0.276388 0.447220 0.850649
v 0.276388 0.447220 0.850649
v 0.276388 0.447220 0.850649
v -0.951058 0.000000 0.309013
v -0.951058 0.000000 0.309013
v -0.951058 0.000000 0.309013
v -0.951058 0.000000 0.309013
v -0.951058 0.000000 0.309013
v -0.587786 0.000000 0.809017
v -0.587786 0.000000 0.809017
v -0.587786 0.000000 0.809017
v -0.587786 0.000000 0.809017
v -0.587786 0.000000 0.809017
v -0.723607 0.447220 0.525725
v -0.723607 0.447220 0.525725
v -0.723607 0.447220 0.525725
v -0.723607 0.447220 0.525725
v -0.587786 0.000000 -0.809017
v -0.587786 0.000000 -0.809017
v -0.587786 0.000000 -0.809017
v -0.587786 0.000000 -0.809017
v -0.587786 0.000000 -0.809017
v -0.951058 0.000000 -0.309013
v -0.951058 0.000000 -0.309013
v -0.951058 0.000000 -0.309013
v -0.951058 0.000000 -0.309013
v -0.951058 0.000000 -0.309013
v -0.723607 0.447220 -0.525725
v -0.723607 0.447220 -0.525725
v -0.723607 0.447220 -0.525725
v -0.723607 0.447220 -0.525725
v 0.587786 0.000000 -0.809017
v 0.587786 0.000000 -0.809017
v 0.587786 0.000000 -0.809017
v 0.587786 0.000000 -0.809017
v 0.587786 0.000000 -0.809017
v 0.000000 0.000000 -1.000000
v 0.000000 0.000000 -1.000000
v 0.000000 0.000000 -1.000000
v 0.000000 0.000000 -1.000000
v 0.000000 0.000000 -1.000000
v 0.276388 0.447220 -0.850649
v 0.276388 0.447220 -0.850649
v 0.276388 0.447220 -0.850649
v 0.276388 0.447220 -0.850649
v 0.688189 0.525736 0.499997
v 0.688189 0.525736 0.499997
v 0.688189 0.525736 0.499997
v 0.688189 0.525736 0.499997
v 0.688189 0.525736 0.499997
v -0.262869 0.525738 0.809012
v -0.262869 0.525738 0.809012
v -0.262869 0.525738 0.809012
v -0.262869 0.525738 0.809012
v -0.262869 0.525738 0.809012
v -0.850648 0.525736 0.000000
v -0.850648 0.525736 0.000000
v -0.850648 0.525736 0.000000
v -0.850648 0.525736 0.000000
v -0.850648 0.525736 0.000000
v -0.262869 0.525738 -0.809012
v -0.262869 0.525738 -0.809012
v -0.262869 0.525738 -0.809012
v -0.262869 0.525738 -0.809012
v -0.262869 0.525738 -0.809012
v 0.688189 0.525736 -0.499997
v 0.688189 0.525736 -0.499997
v 0.688189 0.525736 -0.499997
v 0.688189 0.525736 -0.499997
v 0.688189 0.525736 -0.499997
v 0.162456 0.850654 0.499995
v 0.162456 0.850654 0.499995
v 0.162456 0.850654 0.499995
v 0.162456 0.850654 0.499995
v 0.162456 0.850654 0.499995
v 0.525730 0.850652 0.000000
v 0.525730 0.850652 0.000000
v 0.525730 0.850652 0.000000
v 0.525730 0.850652 0.000000
v 0.525730 0.850652 0.000000
v 0.000000 1.000000 0.000000
v 0.000000 1.000000 0.000000
v 0.000000 1.000000 0.000000
v 0.000000 1.000000 0.000000
v -0.425323 0.850654 0.309011
v -0.425323 0.850654 0.309011
v -0.425323 0.850654 0.309011
v -0.425323 0.850654 0.309011
v -0.425323 0.850654 0.309011
v -0.425323 0.850654 -0.309011
v -0.425323 0.850654 -0.309011
v -0.425323 0.850654 -0.309011
v -0.425323 0.850654 -0.309011
v -0.425323 0.850654 -0.309011
v 0.162456 0.850654 -0.499995
v 0.162456 0.850654 -0.499995
v 0.162456 0.850654 -0.499995
v 0.162456 0.850654 -0.499995
v 0.162456 0.850654 -0.499995
vt 0.994881 0.404956
vt 0.994881 0.502773
vt 0.903646 0.440230
vt 0.517116 0.971531
vt 0.517116 0.873713
vt 0.608351 0.936257
vt 0.727093 0.901411
vt 0.691820 0.992646
vt 0.629276 0.901411
vt 0.398854 0.990622
vt 0.301036 0.990622
vt 0.363580 0.899387
vt 0.572423 0.680023
vt 0.517116 0.599343
vt 0.627730 0.599343
vt 0.083297 0.759536
vt 0.181114 0.759536
vt 0.118571 0.850774
vt 0.699002 0.180636
vt 0.796820 0.180636
vt 0.734276 0.271874
vt 0.722058 0.517117
vt 0.819876 0.517117
vt 0.757332 0.608354
vt 0.629278 0.403410
vt 0.629278 0.305592
vt 0.720516 0.368135
vt 0.307617 0.557603
vt 0.388298 0.502297
vt 0.388298 0.612912
vt 0.293277 0.666754
vt 0.258001 0.757991
vt 0.195458 0.666754
vt 0.168242 0.000773
vt 0.223549 0.081455
vt 0.112934 0.081455
vt 0.250764 0.665209
vt 0.195458 0.584527
vt 0.306071 0.584527
vt 0.404956 0.779389
vt 0.404956 0.681569
vt 0.496192 0.744113
vt 0.629276 0.517117
vt 0.720513 0.552393
vt 0.629276 0.614936
vt 0.713820 0.068476
vt 0.811639 0.068476
vt 0.749095 0.159712
vt 0.798366 0.278454
vt 0.798365 0.180636
vt 0.889602 0.243178
vt 0.919237 0.913028
vt 0.828002 0.877753
vt 0.919237 0.815210
vt 0.727093 0.899865
vt 0.629276 0.899865
vt 0.691818 0.808629
vt 0.460263 0.599343
vt 0.515570 0.680024
vt 0.404956 0.680024
vt 0.988965 0.180636
vt 0.926421 0.271872
vt 0.891147 0.180636
vt 0.404958 0.180636
vt 0.500753 0.235942
vt 0.404958 0.291251
vt 0.515571 0.517116
vt 0.460263 0.597797
vt 0.404956 0.517116
vt 0.819874 0.999227
vt 0.728639 0.936685
vt 0.819874 0.901411
vt 0.515570 0.123783
vt 0.419776 0.179091
vt 0.419776 0.068476
vt 0.627733 0.322729
vt 0.572426 0.403410
vt 0.517118 0.322729
vt 0.306069 0.582981
vt 0.195456 0.582981
vt 0.250763 0.502301
vt 0.612910 0.068476
vt 0.612910 0.179091
vt 0.517116 0.123782
vt 0.293274 0.950137
vt 0.195458 0.950137
vt 0.230732 0.858900
vt 0.517116 0.517116
vt 0.627730 0.517116
vt 0.572423 0.597796
vt 0.083297 0.500755
vt 0.138604 0.404960
vt 0.193911 0.500755
vt 0.728639 0.808629
vt 0.826456 0.808629
vt 0.791181 0.899865
vt 0.440229 0.880296
vt 0.502773 0.971532
vt 0.404956 0.971532
vt 0.307617 0.235944
vt 0.403412 0.180636
vt 0.403413 0.291250
vt 0.821421 0.552392
vt 0.912657 0.517117
vt 0.912657 0.614935
vt 0.819876 0.623065
vt 0.757331 0.714301
vt 0.722058 0.623065
vt 0.098115 0.195456
vt 0.193911 0.250764
vt 0.098115 0.306073
vt 0.662181 0.180636
vt 0.697457 0.271874
vt 0.599638 0.271874
vt 0.691820 0.807084
vt 0.629276 0.715846
vt 0.727093 0.715846
vt 0.208730 0.193911
vt 0.112934 0.138603
vt 0.208730 0.083294
vt 0.517116 0.404956
vt 0.597798 0.460265
vt 0.517116 0.515572
vt 0.614935 0.780932
vt 0.552390 0.872167
vt 0.517116 0.780932
vt 0.193911 0.403414
vt 0.083297 0.403414
vt 0.138604 0.307618
vt 0.404956 0.816208
vt 0.496193 0.780934
vt 0.496193 0.878751
vt 0.081454 0.419779
vt 0.081454 0.530395
vt 0.000773 0.475088
vt 0.195456 0.195456
vt 0.306071 0.195456
vt 0.250763 0.291253
vt 0.774046 0.404956
vt 0.809319 0.496193
vt 0.711502 0.496193
vt 0.629276 0.616482
vt 0.720512 0.679026
vt 0.629276 0.714301
vt 0.000773 0.000773
vt 0.111389 0.000773
vt 0.056080 0.096569
vt 0.784606 0.305592
vt 0.819879 0.396828
vt 0.722061 0.396828
vt 0.335710 0.081455
vt 0.225095 0.081455
vt 0.280401 0.000773
vt 0.306071 0.292799
vt 0.250765 0.388595
vt 0.195456 0.292799
vt 0.398854 0.805060
vt 0.301036 0.805060
vt 0.336309 0.713823
vt 0.145840 0.757991
vt 0.083297 0.666754
vt 0.181116 0.666754
vt 0.000773 0.098115
vt 0.111389 0.098115
vt 0.056080 0.193911
vt 0.791184 0.715846
vt 0.826457 0.807083
vt 0.728639 0.807083
vt 0.398854 0.649733
vt 0.307617 0.712277
vt 0.307617 0.614458
vt 0.000773 0.195456
vt 0.096569 0.250764
vt 0.000773 0.306072
vt 0.677000 0.068476
vt 0.712275 0.159713
vt 0.614455 0.159713
vt 0.517116 0.681568
vt 0.608353 0.744110
vt 0.517116 0.779387
vt 0.210275 0.138604
vt 0.306071 0.083294
vt 0.306071 0.193910
vt 0.000773 0.307618
vt 0.081454 0.362924
vt 0.000773 0.418233
vt 0.828002 0.715846
vt 0.919237 0.778388
vt 0.828002 0.813664
vt 0.307617 0.179091
vt 0.362924 0.083294
vt 0.418230 0.179091
vt 0.195458 0.794810
vt 0.286693 0.759536
vt 0.286693 0.857355
vt 0.810865 0.404956
vt 0.902101 0.467499
vt 0.810865 0.502774
vt 0.418231 0.500751
vt 0.307617 0.500751
vt 0.362924 0.404956
vt 0.848459 0.159712
vt 0.813184 0.068476
vt 0.911002 0.068476
vt 0.193912 0.582982
vt 0.083297 0.582982
vt 0.138605 0.502301
vt 0.403412 0.292796
vt 0.403412 0.403411
vt 0.307617 0.348104
vt 0.856696 0.714300
vt 0.821421 0.623065
vt 0.919239 0.623065
vt 0.883967 0.396828
vt 0.821424 0.305592
vt 0.919242 0.305592
vt 0.195456 0.390141
vt 0.291252 0.445447
vt 0.195456 0.500755
vt 0.515573 0.322729
vt 0.460266 0.403411
vt 0.404958 0.322729
vt 0.083297 0.943555
vt 0.145839 0.852319
vt 0.181114 0.943555
vt 0.502299 0.291251
vt 0.502299 0.180636
vt 0.598093 0.235942
vt 0.599343 0.485636
vt 0.654650 0.404956
vt 0.709956 0.485636
vt 0.336311 0.806605
vt 0.398854 0.897842
vt 0.301036 0.897842
vt 0.419776 0.404956
vt 0.515571 0.460263
vt 0.419776 0.515571
vt 0.193911 0.584527
vt 0.138604 0.665208
vt 0.083297 0.584527
vn 0.1024 -0.9435 0.3151
vn 0.7002 -0.6617 0.2680
vn -0.2680 -0.9435 0.1947
vn -0.2680 -0.9435 -0.1947
vn 0.1024 -0.9435 -0.3151
vn 0.9050 -0.3304 0.2680
vn 0.0247 -0.3304 0.9435
vn -0.8897 -0.3304 0.3151
vn -0.5746 -0.3304 -0.7488
vn 0.5346 -0.3304 -0.7779
vn 0.8026 -0.1256 0.5831
vn -0.3066 -0.1256 0.9435
vn -0.9921 -0.1256 0.0000
vn -0.3066 -0.1256 -0.9435
vn 0.8026 -0.1256 -0.5831
vn 0.4089 0.6617 0.6284
vn -0.4713 0.6617 0.5831
vn -0.7002 0.6617 -0.2680
vn 0.0385 0.6617 -0.7488
vn 0.7240 0.6617 -0.1947
vn 0.2680 0.9435 -0.1947
vn 0.4911 0.7946 -0.3568
vn 0.4089 0.6617 -0.6284
vn -0.1024 0.9435 -0.3151
vn -0.1876 0.7946 -0.5773
vn -0.4713 0.6617 -0.5831
vn -0.3313 0.9435 0.0000
vn -0.6070 0.7946 0.0000
vn -0.7002 0.6617 0.2680
vn -0.1024 0.9435 0.3151
vn -0.1876 0.7946 0.5773
vn 0.0385 0.6617 0.7488
vn 0.2680 0.9435 0.1947
vn 0.4911 0.7946 0.3568
vn 0.7240 0.6617 0.1947
vn 0.8897 0.3304 -0.3151
vn 0.7946 0.1876 -0.5773
vn 0.5746 0.3304 -0.7488
vn -0.0247 0.3304 -0.9435
vn -0.3035 0.1876 -0.9341
vn -0.5346 0.3304 -0.7779
vn -0.9050 0.3304 -0.2680
vn -0.9822 0.1876 0.0000
vn -0.9050 0.3304 0.2680
vn -0.5346 0.3304 0.7779
vn -0.3035 0.1876 0.9341
vn -0.0247 0.3304 0.9435
vn 0.5746 0.3304 0.7488
vn 0.7946 0.1876 0.5773
vn 0.8897 0.3304 0.3151
vn 0.3066 0.1256 -0.9435
vn 0.3035 -0.1876 -0.9341
vn 0.0247 -0.3304 -0.9435
vn -0.8026 0.1256 -0.5831
vn -0.7946 -0.1876 -0.5773
vn -0.8897 -0.3304 -0.3151
vn -0.8026 0.1256 0.5831
vn -0.7946 -0.1876 0.5773
vn -0.5746 -0.3304 0.7488
vn 0.3066 0.1256 0.9435
vn 0.3035 -0.1876 0.9341
vn 0.5346 -0.3304 0.7779
vn 0.9921 0.1256 0.0000
vn 0.9822 -0.1876 0.0000
vn 0.9050 -0.3304 -0.2680
vn 0.4713 -0.6617 -0.5831
vn 0.1876 -0.7946 -0.5773
vn -0.0385 -0.6617 -0.7488
vn -0.4089 -0.6617 -0.6284
vn -0.4911 -0.7946 -0.3568
vn -0.7240 -0.6617 -0.1947
vn -0.7240 -0.6617 0.1947
vn -0.4911 -0.7946 0.3568
vn -0.4089 -0.6617 0.6284
vn 0.7002 -0.6617 -0.2680
vn 0.6070 -0.7946 0.0000
vn 0.3313 -0.9435 0.0000
vn -0.0385 -0.6617 0.7488
vn 0.1876 -0.7946 0.5773
vn 0.4713 -0.6617 0.5831
s 1
f 48/1/1 53/2/1 43/3/1
f 57/4/2 52/5/2 70/6/2
f 49/7/3 45/8/3 84/9/3
f 50/10/4 86/11/4 98/12/4
f 51/13/5 100/14/5 76/15/5
f 58/16/6 72/17/6 117/18/6
f 66/19/7 61/20/7 131/21/7
f 94/22/8 89/23/8 145/24/8
f 108/25/9 103/26/9 159/27/9
f 81/28/10 112/29/10 173/30/10
f 60/31/11 119/32/11 137/33/11
f 69/34/12 133/35/12 151/36/12
f 97/37/13 147/38/13 165/39/13
f 111/40/14 161/41/14 179/42/14
f 83/43/15 175/44/15 123/45/15
f 142/46/16 187/47/16 212/48/16
f 156/49/17 192/50/17 226/51/17
f 170/52/18 197/53/18 231/54/18
f 184/55/19 202/56/19 236/57/19
f 128/58/20 207/59/20 218/60/20
f 217/61/21 237/62/21 222/63/21
f 39/64/22 209/65/22 238/66/22
f 208/67/23 186/68/23 240/69/23
f 239/70/24 232/71/24 225/72/24
f 42/73/25 204/74/25 233/75/25
f 203/76/26 172/77/26 235/78/26
f 234/79/27 227/80/27 224/81/27
f 41/82/28 199/83/28 228/84/28
f 198/85/29 158/86/29 230/87/29
f 229/88/30 213/89/30 223/90/30
f 40/91/31 194/92/31 214/93/31
f 193/94/32 144/95/32 216/96/32
f 215/97/33 219/98/33 12/99/33
f 38/100/34 189/101/34 220/102/34
f 188/103/35 130/104/35 221/105/35
f 122/106/36 210/107/36 127/108/36
f 24/109/37 176/110/37 211/111/37
f 174/112/38 185/113/38 37/114/38
f 178/115/39 205/116/39 183/117/39
f 32/118/40 162/119/40 206/120/40
f 160/121/41 171/122/41 36/123/41
f 164/124/42 200/125/42 169/126/42
f 30/127/43 148/128/43 201/129/43
f 146/130/44 157/131/44 35/132/44
f 150/133/45 195/134/45 155/135/45
f 28/136/46 134/137/46 196/138/46
f 132/139/47 143/140/47 34/141/47
f 136/142/48 190/143/48 141/144/48
f 26/145/49 120/146/49 191/147/49
f 118/148/50 129/149/50 33/150/50
f 177/151/51 180/152/51 10/153/51
f 31/154/52 114/155/52 181/156/52
f 113/157/53 110/158/53 182/159/53
f 163/160/54 166/161/54 9/162/54
f 29/163/55 105/164/55 167/165/55
f 104/166/56 96/167/56 168/168/56
f 149/169/57 152/170/57 8/171/57
f 27/172/58 91/173/58 153/174/58
f 90/175/59 68/176/59 154/177/59
f 135/178/60 138/179/60 7/180/60
f 25/181/61 63/182/61 139/183/61
f 62/184/62 59/185/62 140/186/62
f 121/187/63 124/188/63 11/189/63
f 23/190/64 73/191/64 125/192/64
f 71/193/65 82/194/65 126/195/65
f 75/196/66 115/197/66 80/198/66
f 17/199/67 101/200/67 116/201/67
f 99/202/68 109/203/68 22/204/68
f 102/205/69 106/206/69 5/207/69
f 20/208/70 87/209/70 107/210/70
f 85/211/71 95/212/71 21/213/71
f 88/214/72 92/215/72 4/216/72
f 18/217/73 46/218/73 93/219/73
f 44/220/74 67/221/74 19/222/74
f 74/223/75 77/224/75 6/225/75
f 16/226/76 54/227/76 78/228/76
f 56/229/77 1/230/77 79/231/77
f 47/232/78 64/233/78 3/234/78
f 13/235/79 55/236/79 65/237/79
f 14/238/80 2/239/80 15/240/80
